<svg xmlns="http://www.w3.org/2000/svg" width="367" height="152" fill="none"><g fill="#fff" clip-path="url(#a)"><g opacity=".4"><path d="M188.933 57.8693c.311.6166.474 1.2967.477 1.9869V93.634c-.02 1.1951-.504 2.3355-1.349 3.1807-.845.8452-1.985 1.3291-3.18 1.3495h-13.47v2.0668h15.536c1.195-.021 2.335-.5047 3.18-1.3499.845-.8452 1.329-1.9856 1.349-3.1807V61.9226c-.003-.8456-.243-1.6735-.692-2.3898-.45-.7164-1.091-1.2926-1.851-1.6635ZM209.842 57.3924v40.732h-5.274v2.0766h7.341V57.3924h-2.067ZM242.502 57.3924v40.732h-5.86l.586 2.0766h7.35V57.3924h-2.076ZM229.778 79.4771v18.6672h-5.274v2.0767h7.34V86.6201l-2.066-7.143ZM261.832 82.4575h6.069v-2.1161h-8.135c-.69-.0034-1.37-.1666-1.987-.4768.36.7722.933 1.426 1.65 1.8852.718.4591 1.551.7046 2.403.7077ZM264.643 85.1697l-2.076.4768v5.0965h2.076v-5.5733ZM274.825 57.8693c.31.6166.473 1.2967.476 1.9869v8.6928l-5.334 1.2319v2.5433l7.4-1.7187v-8.6928c-.005-.844-.246-1.6697-.695-2.3842a4.5283 4.5283 0 0 0-1.847-1.6592ZM91.5398 57.8693a4.4702 4.4702 0 0 1 .4768 1.9869V93.634a4.61004 4.61004 0 0 1-1.3492 3.1807 4.60896 4.60896 0 0 1-3.1803 1.3495H76.5012a4.47038 4.47038 0 0 1-1.9866-.4769 4.5303 4.5303 0 0 0 1.659 1.8479c.7143.4493 1.5399.6898 2.3837.6958h11.0059c1.1949-.021 2.3351-.5047 3.1802-1.3499a4.61004 4.61004 0 0 0 1.3492-3.1807V61.9226a4.54032 4.54032 0 0 0-.6984-2.3908 4.5391 4.5391 0 0 0-1.8544-1.6625ZM112.081 72.9997h2.066v-8.2656h3.258v-2.0763h-5.324v10.3419ZM124.249 81.9409a4.4408 4.4408 0 0 0 1.876-1.6406c.456-.7147.698-1.5451.697-2.3929V61.9127c.001-.8504-.239-1.6837-.69-2.4042-.452-.7205-1.097-1.299-1.863-1.669.306.6183.469 1.2973.477 1.9869v16.0444c.006.8476-.232 1.6791-.684 2.3958-.453.7166-1.101 1.2885-1.869 1.6476l3.06 18.2301h-5.642l.347 2.0667h7.341l-3.05-18.2701ZM114.892 80.3017h-2.811v17.8426h-5.274v2.0767h7.34V82.4575h1.093l-.348-2.1558ZM143.887 90.7033h2.076V64.7341h3.248v-2.0763h-5.324v28.0455ZM46.5034 72.9997h2.0661v-8.2656h3.2481v-2.0763h-5.3142v10.3419ZM61.2937 74.5098V61.9127a4.53111 4.53111 0 0 0-.6953-2.3842 4.52927 4.52927 0 0 0-1.8476-1.6592 4.4702 4.4702 0 0 1 .4768 1.9869v12.5971a4.45103 4.45103 0 0 1-.4046 1.9247 4.45182 4.45182 0 0 1-1.1946 1.5624 5.1662 5.1662 0 0 1 1.1956 1.6659 5.1678 5.1678 0 0 1 .4533 2v14.0078a4.60003 4.60003 0 0 1-1.382 3.2182c-.8669.8484-2.0339 1.32-3.2468 1.312H41.2289v2.0667h15.5353c1.1949-.021 2.3352-.5046 3.1802-1.3498.8451-.8451 1.3289-1.9856 1.3493-3.1807V81.6727a5.15701 5.15701 0 0 0-.4662-2.0039 5.15594 5.15594 0 0 0-1.2125-1.662 4.4295 4.4295 0 0 0 1.2423-1.555 4.43025 4.43025 0 0 0 .4364-1.942Z"/><path d="M156.621 59.8562c-.002-.6904-.165-1.3707-.477-1.9869.755.3755 1.391.9533 1.836 1.6691.446.7157.684 1.5411.687 2.3842v33.7778c-.02 1.1951-.504 2.3355-1.349 3.1807-.845.8452-1.985 1.3289-3.18 1.3499h-11.016c-.844-.006-1.669-.2465-2.384-.6958-.714-.4494-1.289-1.0894-1.659-1.8479a4.474 4.474 0 0 0 1.987.4769h11.026a4.60806 4.60806 0 0 0 3.18-1.3495c.845-.8452 1.329-1.9856 1.349-3.1807V59.8562ZM178.752 90.743h-2.076V62.6578H182v2.0763h-3.248V90.743ZM275.301 77.5399c-.003-.6903-.166-1.3703-.477-1.987.754.3739 1.39.95 1.835 1.664.446.714.684 1.5378.688 2.3794v16.1041c-.02 1.1951-.504 2.3355-1.349 3.1807-.845.8452-1.985 1.3289-3.18 1.3499h-11.006c-.844-.006-1.669-.2464-2.384-.6958-.714-.4494-1.288-1.0894-1.659-1.8479.617.3102 1.297.4735 1.987.4769h11.016c1.195-.0204 2.335-.5043 3.18-1.3495.845-.8452 1.329-1.9856 1.349-3.1807V77.5399ZM262.567 72.9997V62.6379l5.324.0199v2.0763h-3.248v8.2656h-2.076ZM295.346 80.3414h.676l1.38 4.4508v15.4288h-7.34v-2.0767h5.284V80.3414ZM308.339 57.3924h2.741l-6.854 21.3496 6.854 21.479h-7.4l-.06-.2487-.576-1.828h5.96l-6.854-21.4687 6.189-19.2832ZM328.324 98.1244v-40.732h2.066v42.8086h-7.331v-2.0766h5.265ZM359.226 82.3681l5.681-5.6826 2.066 2.0763-5.671 5.6826-2.076-2.0763ZM9.58221 82.3681l5.67179-5.6727 2.076 2.0664-5.642 5.6826-2.10579-2.0763ZM48.5695 90.743h-2.0661V80.3414h5.3142v2.1161h-3.2481v8.2855ZM81.3485 90.743h-2.066l.0099-28.0852h5.3042v2.0763h-3.2481V90.743Z"/></g><path fill-rule="evenodd" d="M119.72 0c7.033 0 6.446 8.94118-.646 11.3553 6.794 4.5401 1.907 17.1969-8.622 17.2068-12.3663 0-14.5416-13.6403-7.132-18.3592l1.331 1.7783c-3.426 2.2055-4.142 7.2324-1.698 10.6002.508-.6229.964-1.2876 1.361-1.9869l9.565-16.45175C115.469 1.36105 117.733 0 119.72 0Zm-14.473 24.6081c1.562.8476 3.32 1.2691 5.096 1.222 8.562 0 11.85-12.1998 3.626-13.9383l-.994-.0994-5.959 10.3022c-.519.8856-1.11 1.7263-1.769 2.5135Zm11.751-19.77986-2.851 4.89777c3.596-.06954 5.603-.85438 6.964-3.40758 1.768-3.3281-1.53-5.94091-4.113-1.49019Z" clip-rule="evenodd"/><path fill-rule="evenodd" d="m257.253 19.1441.238-.2683c.302.0823.583.2264.826.4231.242.1966.442.4416.585.7194-2.891 3.3679-6.248 6.4277-11.383 6.5271h-.209c-.873.0344-1.732-.229-2.436-.7471a3.8555 3.8555 0 0 1-1.438-2.1042l1.987-.9934c.067.1849.173.3528.312.4919s.307.2458.492.3128c.339.1251.713.1106 1.041-.0403.328-.1509.582-.4259.707-.7644l5.334-9.2492c.924-1.5995-1.529-3.57646-5.502 1.7982l-10.569 18.389h-3.566l6.436-11.1665a9.61035 9.61035 0 0 1-3.784.9338h-.785c-3.834 4.8382-10.082 3.9639-10.082-.5464-2.185 2.0962-4.45 3.646-6.506 3.646-2.851 0-3.914-2.4141-2.414-5.0269l4.589-7.9477c1.53-2.6327-.874-3.5069-6.317 3.3281l-5.364 9.3485h-3.566l1.212-2.1062c-1.598 1.2034-3.461 2.0072-5.433 2.3446h-.1c-.328.0696-.665.0696-.993.0696-.873.0344-1.732-.229-2.436-.7471a3.8555 3.8555 0 0 1-1.438-2.1042l2.156-1.1524c.128.3503.353.6572.648.8857.295.2284.649.369 1.02.4058 2.206 0 2.622-2.8933 3.057-5.9148.222-1.5375.448-3.1081.917-4.3477-.206.2736-.425.5689-.658.8815-1.186 1.5944-2.708 3.6408-4.369 5.576-2.92 3.3977-6.357 6.5271-9.208 6.5271-2.85 0-3.913-2.4042-2.413-5.0269l3.735-6.4873c.172-.3129.244-.671.207-1.0262-.037-.3553-.183-.6905-.416-.9608l-.477-.5762-.647.8706c-2.418 3.2506-3.629 4.8792-5.193 6.7095-2.98 3.3977-6.954 6.5271-10.927 6.5271-3.119 0-4.976-1.9373-4.788-4.4905a10.28578 10.28578 0 0 1-4.688 1.3909c-.261.0199-.523.0199-.785 0a7.81268 7.81268 0 0 1-2.604 2.3215 7.81624 7.81624 0 0 1-3.355.9569c-2.285 0-4.083-1.361-4.083-3.7751-2.185 2.0862-4.45 3.6261-6.496 3.6261-2.851 0-3.904-2.4042-2.414-5.0269l3.735-6.4873c.172-.3129.245-.671.207-1.0262a1.74328 1.74328 0 0 0-.416-.9608l-.476-.5762-.648.8711c-2.418 3.2505-3.628 4.8788-5.193 6.7091-2.92 3.3976-6.288 6.527-9.208 6.527-1.798 0-2.891-.9537-3.059-2.3148-1.699 1.4008-3.467 2.3148-4.897 2.3148-2.851 0-3.914-2.4042-2.414-5.0269l4.966-8.5637c1.5-2.583 4.142-4.08311 6.05-4.08311.94-.01775 1.851.32565 2.546.95953a3.67224 3.67224 0 0 1 1.188 2.44808h1.987l-5.711 9.9942c-.815 1.4405-.378 1.9869.407 1.9869 1.569 0 4.043-2.3247 6.595-5.3051l.239-.2682c2.284-2.7519 4.4-5.7422 5.96-7.9477l-.308-.4073c-1.262-1.6293-1.073-3.6361.914-5.43427l1.837 1.98693-.149.10928c-.138.12398-.25.27485-.329.44344-.078.16859-.122.35137-.127.53723-.006.18586.027.37091.095.5439.068.17299.171.3303.302.46236l1.986 2.37433c1.152 1.3909 1.728 2.6427.507 4.7885l-3.536 6.1893c-.815 1.4405-.378 1.987.407 1.987 1.569 0 4.043-2.3248 6.595-5.3051l.189-.2087 9.903-17.10742h3.606l-4.49 7.77882a4.13425 4.13425 0 0 1 2.315-.78484h.407c.391.02405.773.12485 1.125.29665.351.1718.666.41122.925.7046.259.29339.458.63499.585 1.00519.127.3703.18.762.156 1.1528-.099 1.444-.557 2.8404-1.331 4.0632l-3.327 5.7423a7.54174 7.54174 0 0 0 2.935-.7589 7.54147 7.54147 0 0 0 2.399-1.8539l.208-.2385 3.447-5.9608c.619-1.2048 1.555-2.2185 2.706-2.93252 1.152-.714 2.475-1.10141 3.83-1.12077 2.89 0 4.728 2.45389 2.821 5.71239l-.507.8842c-2.652 4.5799-6.933 5.0667-9.208 4.0732l-.337.616c-1.629 2.8512-.338 4.2123 1.837 4.2123 2.484 0 5.742-2.3248 8.294-5.3051l.239-.2683c2.241-2.6874 4.301-5.6022 5.849-7.7914l.111-.1563-.298-.4073c-1.262-1.6293-1.073-3.63609.913-5.43426l1.838 1.98693-.109.08941c-.134.12879-.24.28313-.312.45382-.073.17068-.11.35421-.11.53964 0 .18543.037.36896.11.53964.072.17069.178.32503.312.45382l1.986 2.3744c1.153 1.3908 1.729 2.6426.507 4.7885l-3.536 6.1893c-.815 1.4405-.378 1.9869.407 1.9869 1.569 0 4.043-2.3247 6.596-5.3051l.238-.2682c2.532-2.9668 5.071-6.5038 6.74-8.82927.433-.60253.807-1.12373 1.107-1.5326l2.652 1.43058c-1.321 2.74559-1.752 5.72939-2.138 8.40379-.25 1.7285-.481 3.3282-.921 4.6503a21.85742 21.85742 0 0 0 4.221-3.8447l.199-.2285 9.804-17.16703h3.536l-5.642 9.82533c1.808-1.83788 3.437-2.68232 4.967-2.68232 1.976 0 3.437 1.93722 1.907 4.61962l-5.096 8.9412c-.814 1.4405-.377 1.9869.407 1.9869 1.57 0 4.043-2.3247 6.596-5.3051l.189-.2186 1.45-2.4638 1.738-2.9804c2.036-3.53669 4.142-4.61956 6.864-4.61956 3.328 0 5.304 3.49696 3.159 7.20266l-3.328 5.7422c1.019-.055 2.016-.3147 2.933-.7636.916-.4489 1.733-1.0778 2.401-1.8492l.239-.2683 5.522-9.5869h3.536l-.715 1.222c3.606-3.2288 8.94-1.35115 5.642 4.252l-3.903 6.6959c-.22.3505-.429.7559-.648 1.1822-.247.48-.507.9863-.813 1.4704a16.59392 16.59392 0 0 0 6.457-4.9673Zm-76.683-4.4905c2.106-3.6659-1.55-4.2421-3.536-.7451l-2.275 3.9739c1.331.4768 3.606.5464 5.304-2.3446l.507-.8842Zm-54.553 9.7956c1.461 0 3.566-1.5995 5.712-4.9674l2.821-4.8779c1.698-3.189-2.066-4.0434-3.973-.7451l-4.967 8.6034c-.814 1.4406-.377 1.987.407 1.987Zm31.393-.4651c.257.2236.589.3403.93.326l-.01-.0398c.556-.0394 1.093-.2185 1.562-.5207a3.3185 3.3185 0 0 0 1.12-1.2079c-.614-.4164-1.131-.9587-1.518-1.5909a5.21345 5.21345 0 0 1-.727-2.075l-1.192 2.2353c-.354.5524-.566 1.1838-.616 1.8379v.159c.033.339.194.6525.451.8761Zm3.472-4.5367c.261.557.653 1.0426 1.143 1.4154l3.615-6.1893c.404-.6316.637-1.3574.676-2.1062a.95278.95278 0 0 0 0-.1689c.001-.1774-.033-.3533-.099-.5178-.067-.1644-.165-.3141-.29-.4405-.124-.1263-.273-.227-.436-.2961-.163-.0691-.339-.1053-.516-.1066-2.007 0-4.45 4.1129-4.45 6.6264-.027.6147.096 1.2266.357 1.7836Zm73.555-.353h.178l2.563-4.4408c2.146-3.6758-1.251-5.3349-3.735-1.1226l-4.35 7.5603c-2.106 3.6758 1.937 4.2122 3.605 1.361v-.0695c-.219-.3591-.336-.7714-.337-1.1922-.002-.274.051-.5455.155-.7991.103-.2537.256-.4844.449-.679.192-.1947.422-.3495.674-.4555.253-.1061.524-.1613.798-.1626Z" clip-rule="evenodd"/><path d="M5.68847 67.0986.01669 72.7812l5.67178 5.7025 5.67173-5.7025-5.67173-5.6826ZM355.332 67.1085l-5.672 5.6727 5.692 5.7025 5.662-5.7025-5.682-5.6727ZM166.793 123.041h1.4c5.394.278 9.625 1.718 12.307 4.689 2.722-2.981 6.953-4.431 12.377-4.689h1.341c7.366.498 12.278 3.926 17.184 7.349 3.106 2.168 6.21 4.333 9.933 5.754 1.493.68 3.118 1.02 4.758.994 2.463-.268 4.033-2.762 3.715-5.544-.338-2.98-3.258-5.573-6.516-4.143-.429.199-.822.467-1.162.795-.033.03-.067.067-.101.107-.021.024-.042.05-.063.075-.218.262-.497.597-.999.424-.563-.47-.061-1.144.256-1.569l.052-.07c.589-1.046 1.479-1.89 2.555-2.422 1.075-.532 2.287-.726 3.475-.558 5.592.397 10.598 5.305 9.744 12.736-1.907 11.057-12.019 14.038-24.008 15.031h-3.904c-10.463-.426-20.499-4.264-28.577-10.928-8.141 6.642-18.21 10.475-28.707 10.928h-3.834c-12.078-1.063-22.29-3.974-24.068-15.359-.675-8.107 4.152-12.09 9.755-12.498 1.198-.17 2.419.023 3.506.554 1.088.532 1.991 1.377 2.593 2.427.023.038.048.079.074.121.284.454.679 1.087.233 1.587-.498.09-.788-.217-1.019-.461-.05-.052-.097-.102-.143-.145-.363-.378-.797-.681-1.278-.891-.481-.209-.998-.322-1.523-.331-3.834-.139-6.039 4.123-4.509 7.561.298.668.762 1.248 1.348 1.687.586.438 1.274.719 1.999.816 1.638.01 3.26-.328 4.758-.993 1.335-.514 2.621-1.146 3.844-1.888 1.895-1.099 3.684-2.317 5.471-3.535 5.097-3.474 10.187-6.942 17.733-7.611Z"/><path fill-rule="evenodd" d="M54.866 70.4632a4.43988 4.43988 0 0 0 .4281-1.9142V55.9121a4.56989 4.56989 0 0 0-1.3381-3.1918c-.8472-.8474-1.9933-1.328-3.1913-1.3383H35.2294v42.8282h15.5452a4.60828 4.60828 0 0 0 3.1802-1.3495c.8451-.8452 1.3288-1.9856 1.3493-3.1807V75.6721a5.16602 5.16602 0 0 0-.4534-1.9999 5.1659 5.1659 0 0 0-1.1955-1.6659 4.44103 4.44103 0 0 0 1.2108-1.5431ZM42.5699 58.7237h5.3241v10.3419h-5.3241V58.7237Zm0 17.6836h5.3241v10.4016h-5.3241V76.4073ZM86.745 52.7203a4.56829 4.56829 0 0 0-3.1914-1.3383H72.528a4.51697 4.51697 0 0 0-1.7349.3421c-.5502.2272-1.05.5609-1.4709.9818a4.52184 4.52184 0 0 0-.9816 1.4711 4.5202 4.5202 0 0 0-.3421 1.7351v33.7778c.0104 1.1983.4909 2.3446 1.3381 3.1919a4.56915 4.56915 0 0 0 3.1914 1.3383h11.0256c1.195-.0204 2.3352-.5043 3.1803-1.3494a4.61028 4.61028 0 0 0 1.3492-3.1808V55.9121a4.56989 4.56989 0 0 0-1.3381-3.1918Zm-11.3861 6.0034h5.3142l.0099 28.0852h-5.3241V58.7237ZM110.979 76.4073l2.98 17.8029h7.32l-3.059-18.2301c.776-.3507 1.436-.9175 1.899-1.6327.463-.7152.711-1.5486.713-2.4007V55.9121c.004-.591-.108-1.1769-.331-1.7245a4.49182 4.49182 0 0 0-.965-1.4665c-.416-.4206-.909-.7554-1.454-.9852-.544-.2298-1.129-.35-1.719-.3539h-15.536v42.8282h7.341V76.4073h2.811Zm-2.831-17.6836h5.324v10.3419h-5.324V58.7237ZM151.35 52.7203c-.848-.8474-1.994-1.328-3.192-1.3383h-11.065c-1.192.0131-2.33.4964-3.167 1.3449-.838.8484-1.306 1.9932-1.303 3.1852v33.7778c.01 1.1983.491 2.3446 1.338 3.1919a4.56803 4.56803 0 0 0 3.191 1.3383h11.006c1.195-.0204 2.335-.5043 3.18-1.3494.845-.8452 1.329-1.9857 1.35-3.1808V55.9121c-.011-1.1982-.491-2.3445-1.338-3.1918Zm-11.396 6.0034h5.324v28.0852h-5.324V58.7237ZM184.139 52.7203c-.848-.8474-1.994-1.328-3.192-1.3383h-15.535v42.8381h15.535c1.195-.0204 2.335-.5043 3.18-1.3494.845-.8452 1.329-1.9857 1.35-3.1808V55.9121c-.011-1.1982-.491-2.3445-1.338-3.1918Zm-11.387 6.0034h5.325v28.0852h-5.325V58.7237Z" clip-rule="evenodd"/><path d="M205.909 51.382h-7.341v42.8282h7.341V51.382ZM238.579 94.2102V51.382h-7.371v17.5545l-5.383-17.5545h-7.281v42.8282h7.311V75.5033l5.383 18.7069h7.341ZM270.03 70.4039c-.848-.8473-1.994-1.3279-3.192-1.3383h-8.175V58.7237h5.324v7.5702l7.401-1.7187v-8.6631c-.011-1.1982-.491-2.3445-1.339-3.1918a4.56717 4.56717 0 0 0-3.191-1.3383h-11.026c-.593.0013-1.181.1195-1.728.3478-.548.2284-1.046.5625-1.464.9831a4.5189 4.5189 0 0 0-.977 1.4687c-.226.5489-.341 1.1369-.34 1.7305V71.897c.001.5936.119 1.1811.348 1.7291.228.5479.562 1.0455.983 1.4643.42.4188.919.7507 1.468.9766.549.226 1.137.3416 1.73.3403h8.135v10.4115h-5.324v-7.6497l-7.34 1.7088v8.812c.01 1.1949.488 2.3382 1.331 3.185s1.984 1.3297 3.178 1.3452h11.006c1.195-.0204 2.335-.5043 3.18-1.3494.846-.8452 1.329-1.9857 1.35-3.1808V73.5958c-.011-1.1983-.491-2.3445-1.338-3.1919ZM305.081 94.2201l-6.854-21.4787 6.913-21.3594h-7.46l-5.632 17.6836h-.606V51.382h-7.34v42.8282h7.34v-17.793h.676l5.503 17.5546.059.2483h7.401ZM324.44 51.382h-7.341v42.8282h7.341V51.382Z"/></g><defs><clipPath id="a"><path fill="#fff" d="M0 0h367v152H0z"/></clipPath></defs></svg>