<svg xmlns="http://www.w3.org/2000/svg" width="187" height="24" fill="none"><g fill="#DBB590" opacity=".4"><path d="M96.2714 3.18729c.158.30295.2412.63708.243.97621V20.759c-.0105.5871-.257 1.1475-.6876 1.5627-.4306.4153-1.0117.653-1.6206.663h-6.8639V24h7.9167c.6089-.0101 1.19-.2478 1.6206-.663.4307-.4153.6772-.9756.6876-1.5628V5.17875c-.0017-.41549-.124-.82222-.353-1.17417-.229-.35195-.5556-.63506-.9428-.81729ZM106.927 2.953v20.0122h-2.688v1.0201h3.74V2.953h-1.052ZM123.57 2.953v20.0122h-2.987l.299 1.0201h3.746V2.953h-1.058ZM117.086 13.8035v9.1715h-2.688v1.0201h3.741V17.313l-1.053-3.5095ZM133.42 15.2678h3.093v-1.0396h-4.146c-.351-.0017-.698-.0819-1.012-.2343.184.3794.475.7006.841.9262.366.2256.79.3462 1.224.3477ZM134.853 16.6003l-1.058.2343v2.504h1.058v-2.7383ZM140.041 3.18729c.158.30295.241.63708.243.97621v4.27089l-2.718.60525v1.24956l3.771-.84444V5.17387c-.003-.41466-.125-.82036-.354-1.17136-.229-.35101-.555-.63336-.942-.81522ZM46.6399 3.18729c.1581.30295.2412.63708.243.9762V20.759c-.0104.5871-.257 1.1475-.6876 1.5627-.4306.4153-1.0117.653-1.6206.663h-5.5984c-.3517-.0017-.6982-.0819-1.0124-.2343.1886.3727.4814.6871.8454.9079.364.2208.7848.3391 1.2148.3417h5.6085c.6089-.0101 1.19-.2478 1.6206-.663.4307-.4153.6772-.9756.6876-1.5628V5.17875c-.0027-.41589-.126-.82275-.3559-1.17464-.2299-.3519-.5572-.63482-.945-.81682ZM57.1078 10.6211h1.0529V6.56008h1.6603V5.53994h-2.7132v5.08116ZM63.3086 15.014c.3919-.1752.7236-.4549.9559-.806.2323-.3512.3556-.7592.3551-1.1757V5.17386c.0003-.41779-.1216-.82719-.3517-1.18119-.2301-.35399-.5591-.63822-.9492-.82002.1557.30377.2388.63737.243.9762v7.88285c.0029.4164-.1181.8249-.3487 1.177-.2306.3522-.561.6331-.9522.8096l1.559 8.9567h-2.8751l.1772 1.0152h3.7407l-1.554-8.9762ZM58.5403 14.2086h-1.4325v8.7664H54.42v1.0201h3.7407v-8.7273h.5568l-.1772-1.0592ZM73.3159 19.3191h1.0579V6.56008h1.6552V5.53994h-2.7131V19.3191ZM23.6895 10.6211h1.0528V6.56008h1.6553V5.53994h-2.7081v5.08116ZM31.2266 11.363V5.17386c-.0027-.41465-.1254-.82035-.3544-1.17136-.2289-.351-.555-.63335-.9415-.81521.1581.30295.2413.63708.243.9762v6.18911c.0053.3261-.0652.6492-.2062.9457-.141.2964-.349.5587-.6088.7676.2578.2308.465.5091.6093.8185.1443.3093.2229.6434.231.9826v6.8822c-.0093.596-.2624 1.1643-.7042 1.5811-.4418.4169-1.0365.6486-1.6546.6447h-6.8386v1.0152h7.9168c.6089-.01 1.19-.2478 1.6206-.663.4306-.4153.6772-.9756.6876-1.5627v-6.8823c-.0098-.3402-.0906-.6751-.2376-.9845-.147-.3095-.3571-.5872-.6179-.8166.2684-.2051.4849-.4663.6331-.764.1482-.2976.2242-.6239.2224-.9541Z"/><path d="M79.8052 4.16349c-.0012-.33919-.0844-.67344-.243-.9762.3846.18449.7085.4684.9355.82004.227.35165.3483.7572.3502 1.17142V21.7742c-.0104.5872-.2569 1.1475-.6876 1.5628-.4306.4152-1.0117.6529-1.6206.663h-5.6136c-.43-.0026-.8507-.1209-1.2148-.3417-.364-.2208-.6568-.5352-.8454-.9079.3142.1524.6607.2326 1.0124.2343h5.6187c.6089-.01 1.1899-.2477 1.6206-.663.4306-.4152.6771-.9756.6876-1.5627V4.16349ZM91.083 19.3386h-1.058V5.53994h2.7132v1.02014H91.083V19.3386ZM140.284 12.8517c-.002-.3391-.085-.6732-.243-.9762.384.1837.708.4667.935.8175.227.3508.349.7556.351 1.1691v7.9121c-.01.5872-.257 1.1475-.688 1.5628-.43.4152-1.011.6529-1.62.663h-5.609c-.43-.0026-.851-.1209-1.215-.3417-.364-.2208-.656-.5352-.845-.9079.314.1524.661.2326 1.012.2343h5.614c.609-.01 1.19-.2477 1.621-.663.43-.4152.677-.9756.687-1.5627v-7.9073ZM133.795 10.6211V5.53018l2.713.00976v1.02014h-1.655v4.06102h-1.058ZM150.499 14.2282h.344l.704 2.1867v7.5802h-3.741V22.975h2.693v-8.7468ZM157.12 2.953h1.397l-3.493 10.4893 3.493 10.5528h-3.771l-.03-.122-.294-.8981h3.037l-3.493-10.5479 3.154-9.4741ZM167.304 22.9652V2.953h1.053v21.0323h-3.735v-1.0201h2.682ZM183.052 15.2239l2.895-2.792L187 13.4521l-2.89 2.7919-1.058-1.0201ZM4.87455 15.2239l2.89032-2.7871 1.05793 1.0153-2.87514 2.7919-1.07311-1.0201ZM24.7423 19.3386h-1.0528v-5.1104h2.7081v1.0396h-1.6553v4.0708ZM41.4465 19.3386h-1.0529l.0051-13.79866h2.703v1.02014h-1.6552V19.3386Z"/></g><path fill="#DBB590" d="M2.89032 7.72179 0 10.5137l2.89032 2.8017 2.89032-2.8017-2.89032-2.79191ZM181.068 7.72667l-2.891 2.78703 2.901 2.8017 2.885-2.8017-2.895-2.78703Z"/><path fill="#DBB590" fill-rule="evenodd" d="M27.9511 9.3749c.1445-.2939.219-.61523.2181-.94049V2.22575c-.0053-.58873-.2502-1.1519-.6819-1.5682C27.0556.24124 26.4715.0051 25.861 0h-7.9167V21.0421h7.9218c.6089-.01 1.19-.2478 1.6206-.663.4306-.4153.6772-.9756.6876-1.5628v-6.8822c-.0082-.3391-.0867-.6732-.231-.9826-.1444-.3093-.3515-.5877-.6093-.8185.2617-.20519.4725-.46421.6171-.7581ZM21.685 3.60708h2.7131v5.08114H21.685V3.60708Zm0 8.68822h2.7131v5.1104H21.685v-5.1104ZM44.1965.65755C43.7648.24124 43.1807.0051 42.5702 0h-5.6187c-.3033-.00065-.6037.05648-.8841.1681-.2803.11164-.535.27556-.7495.48237-.2145.2068-.3845.45242-.5002.72275-.1158.27033-.175.56005-.1744.85252V18.8212c.0053.5888.2502 1.1519.6819 1.5682.4318.4163 1.0158.6525 1.6263.6576h5.6187c.6089-.0101 1.19-.2478 1.6206-.663.4306-.4153.6772-.9756.6876-1.5628V2.22575c-.0053-.58873-.2502-1.1519-.6819-1.5682Zm-5.8023 2.94953h2.708l.0051 13.79862h-2.7131V3.60708ZM56.546 12.2953l1.5185 8.7468h3.7306l-1.559-8.9567c.3956-.1723.7315-.4508.9676-.8022.2361-.3514.3623-.7608.3636-1.1795V2.22575c.002-.29037-.0553-.57827-.1687-.84727-.1134-.26901-.2806-.51384-.4921-.72052-.2116-.20668-.4632-.37116-.7407-.48406-.2774-.11289-.5752-.17198-.8763-.1739h-7.9168v21.0421h3.7407v-8.7468h1.4326Zm-1.4427-8.68822h2.7132v5.08114h-2.7132V3.60708ZM77.1188.65755C76.687.24124 76.103.0051 75.4925 0h-5.6389c-.6073.00643-1.1874.24392-1.614.66077-.4266.41685-.6652.97932-.6639 1.56497V18.8212c.0053.5888.2502 1.1519.6819 1.5682.4318.4163 1.0158.6525 1.6263.6576h5.6086c.6089-.0101 1.19-.2478 1.6206-.663.4306-.4153.6772-.9756.6876-1.5628V2.22575c-.0053-.58873-.2502-1.1519-.6819-1.5682Zm-5.8074 2.94953h2.7131V17.4057h-2.7131V3.60708ZM93.828.65755C93.3962.24124 92.8122.0051 92.2016 0h-7.9167V21.047h7.9167c.609-.0101 1.19-.2478 1.6207-.663.4306-.4153.6771-.9756.6876-1.5628V2.22575c-.0053-.58873-.2502-1.1519-.6819-1.5682Zm-5.8024 2.94953h2.7132V17.4057h-2.7132V3.60708Z" clip-rule="evenodd"/><path fill="#DBB590" d="M104.922 0h-3.741v21.0421h3.741V0ZM121.571 21.0421V0h-3.756v8.62477L115.071.00001h-3.71V21.0421h3.725v-9.191l2.744 9.191h3.741ZM137.598 9.34577c-.432-.41632-1.016-.65245-1.627-.65755h-4.165V3.60708h2.713v3.71934l3.771-.84442V2.22575c-.005-.58873-.25-1.1519-.682-1.5682C137.176.24124 136.592.0051 135.982 0h-5.619c-.302.00063-.602.05871-.881.17091-.279.1122-.533.27633-.746.483-.214.20669-.383.45188-.498.72157-.115.26969-.174.55861-.173.85026v7.85355c.001.2917.061.5803.177.8495.116.2692.287.5137.501.7195.214.2058.469.3688.748.4798.28.111.58.1678.882.1672h4.146v5.1153h-2.713v-3.7584l-3.741.8396v4.3294c.005.5871.249 1.1488.678 1.5648.43.4161 1.011.6533 1.62.661h5.608c.609-.0101 1.19-.2478 1.621-.663.431-.4153.677-.9756.688-1.5628V10.914c-.006-.5888-.25-1.15193-.682-1.56823ZM155.46 21.047l-3.493-10.5528L155.49 0h-3.801l-2.871 8.68822h-.308V.00001h-3.741V21.0421h3.741v-8.7419h.344l2.804 8.6247.031.1221h3.771ZM165.325 0h-3.741v21.0421h3.741V0Z"/></svg>