<svg xmlns="http://www.w3.org/2000/svg" width="16" height="16" fill="none"><g filter="url(#a)"><path fill="#BDBDBD" fill-rule="evenodd" d="M6.5 2a4.5 4.5 0 1 1 0 9 4.5 4.5 0 0 1 0-9ZM0 6.5a6.5 6.5 0 0 0 10.335 5.249l3.958 3.958 1.414-1.414-3.958-3.958A6.5 6.5 0 1 0 0 6.5Z" clip-rule="evenodd"/><path fill="#000" d="m10.335 11.749.353-.354-.303-.303-.345.253.295.404Zm3.958 3.958-.354.354.354.353.354-.353-.354-.354Zm1.414-1.414.354.354.353-.354-.353-.354-.354.354Zm-3.958-3.958-.404-.296-.253.346.303.303.354-.353ZM11 6.5h.5a5 5 0 0 0-5-5v1a4 4 0 0 1 4 4h.5ZM6.5 11v.5a5 5 0 0 0 5-5h-1a4 4 0 0 1-4 4v.5ZM2 6.5h-.5a5 5 0 0 0 5 5v-1a4 4 0 0 1-4-4H2ZM6.5 2v-.5a5 5 0 0 0-5 5h1a4 4 0 0 1 4-4V2Zm0 11v-.5a6 6 0 0 1-6-6h-1a7 7 0 0 0 7 7V13Zm3.835-1.251-.296-.404A5.97 5.97 0 0 1 6.5 12.5v1a6.97 6.97 0 0 0 4.13-1.348l-.295-.403Zm3.958 3.958.354-.354-3.959-3.958-.353.354-.354.353 3.958 3.959.354-.354Zm1.414-1.414-.354-.354-1.414 1.415.354.353.354.354 1.414-1.415-.354-.353Zm-3.958-3.958-.354.353 3.959 3.958.353-.353.354-.354-3.959-3.958-.353.354ZM13 6.5h-.5a5.97 5.97 0 0 1-1.155 3.54l.404.295.403.295A6.97 6.97 0 0 0 13.5 6.5H13ZM6.5 0v.5a6 6 0 0 1 6 6h1a7 7 0 0 0-7-7V0ZM0 6.5h.5a6 6 0 0 1 6-6v-1a7 7 0 0 0-7 7H0Z"/></g><defs><filter id="a" width="24.914" height="24.914" x="-4.5" y="-.5" color-interpolation-filters="sRGB" filterUnits="userSpaceOnUse"><feFlood flood-opacity="0" result="BackgroundImageFix"/><feColorMatrix in="SourceAlpha" result="hardAlpha" values="0 0 0 0 0 0 0 0 0 0 0 0 0 0 0 0 0 0 127 0"/><feOffset dy="4"/><feGaussianBlur stdDeviation="2"/><feComposite in2="hardAlpha" operator="out"/><feColorMatrix values="0 0 0 0 0 0 0 0 0 0 0 0 0 0 0 0 0 0 0.25 0"/><feBlend in2="BackgroundImageFix" result="effect1_dropShadow_168187_437"/><feBlend in="SourceGraphic" in2="effect1_dropShadow_168187_437" result="shape"/></filter></defs></svg>